<svg width="53" height="40" viewBox="1 0 53 40" fill="none" xmlns="http://www.w3.org/2000/svg">
    <path fill-rule="evenodd" clip-rule="evenodd"
        d="M11.9397 0.171313C12.896 0.605667 13.3178 1.72997 12.8817 2.68251L5.86263 18.0142H16.8595C17.9106 18.0142 18.7627 18.8629 18.7627 19.9098V37.2803C18.7627 38.3271 17.9106 39.1758 16.8595 39.1758C15.8085 39.1758 14.9564 38.3271 14.9564 37.2803V21.8054H2.90314C2.25568 21.8054 1.65263 21.4776 1.30242 20.9351C0.952211 20.3927 0.902904 19.7101 1.17154 19.1234L9.41848 1.10957C9.85457 0.157033 10.9834 -0.263041 11.9397 0.171313Z"
        fill="white" />
    <path fill-rule="evenodd" clip-rule="evenodd"
        d="M41.9004 5.49246C35.1579 2.21813 27.2303 4.34305 23.1192 10.1179C22.5112 10.9719 21.3233 11.1733 20.466 10.5677C19.6085 9.96219 19.4063 8.77899 20.0143 7.92499C25.2099 0.626707 35.1611 -1.99799 43.5685 2.08476C52.9001 6.61638 56.8723 17.7405 52.3601 26.9584C47.8479 36.1764 36.6026 39.9106 27.2709 35.3789C26.3261 34.9201 25.9337 33.7853 26.3943 32.8443C26.855 31.9033 27.9942 31.5124 28.939 31.9712C36.4297 35.6089 45.3714 32.5849 48.9389 25.297C52.5063 18.0092 49.3911 9.13011 41.9004 5.49246Z"
        fill="white" />
    <path fill-rule="evenodd" clip-rule="evenodd"
        d="M32.719 35.3842C32.719 34.3373 33.5711 33.4886 34.6222 33.4886H52.3848C53.4359 33.4886 54.288 34.3373 54.288 35.3842C54.288 36.4312 53.4359 37.2798 52.3848 37.2798H34.6222C33.5711 37.2798 32.719 36.4312 32.719 35.3842Z"
        fill="white" />
</svg>