<?xml version="1.0" standalone="no"?>
<!DOCTYPE svg PUBLIC "-//W3C//DTD SVG 1.1//EN" "http://www.w3.org/Graphics/SVG/1.1/DTD/svg11.dtd" >
<svg xmlns="http://www.w3.org/2000/svg">
<metadata>Generated by IcoMoon</metadata>
<defs>
<font id="icomoon" horiz-adv-x="1024">
<font-face units-per-em="1024" ascent="960" descent="-64" />
<missing-glyph horiz-adv-x="1024" />
<glyph unicode="&#x20;" horiz-adv-x="512" d="" />
<glyph unicode="&#xe900;" glyph-name="chevron-left" d="M564.755 688.915c8.331 8.331 21.839 8.331 30.17 0l30.007-30.007c8.324-8.324 8.331-21.82 0.015-30.153l-180.361-180.755 180.361-180.755c8.316-8.333 8.309-21.828-0.015-30.153l-30.007-30.007c-8.331-8.331-21.839-8.331-30.17 0l-240.915 240.915 240.915 240.915z" />
<glyph unicode="&#xe901;" glyph-name="chevron-right" d="M459.245 688.915c-8.331 8.331-21.839 8.331-30.17 0l-30.007-30.007c-8.324-8.324-8.331-21.82-0.015-30.153l180.361-180.755-180.361-180.755c-8.316-8.333-8.309-21.828 0.015-30.153l30.007-30.007c8.331-8.331 21.839-8.331 30.17 0l240.915 240.915-240.915 240.915z" />
<glyph unicode="&#xe902;" glyph-name="iconmonstr-instagram-14" d="M632.704 691.115c-31.488 1.451-40.96 1.707-120.704 1.707s-89.173-0.299-120.661-1.707c-81.024-3.712-118.741-42.069-122.453-122.453-1.408-31.488-1.749-40.917-1.749-120.661s0.341-89.173 1.749-120.704c3.712-80.171 41.259-118.741 122.453-122.453 31.445-1.408 40.917-1.749 120.661-1.749 79.787 0 89.216 0.299 120.704 1.749 81.024 3.669 118.699 42.155 122.453 122.453 1.408 31.488 1.707 40.96 1.707 120.704s-0.299 89.173-1.707 120.661c-3.755 80.341-41.515 118.741-122.453 122.453zM512 294.613c-84.693 0-153.387 68.651-153.387 153.387 0 84.693 68.693 153.344 153.387 153.344s153.387-68.651 153.387-153.344c0-84.693-68.693-153.387-153.387-153.387zM671.445 571.563c-19.797 0-35.84 16.043-35.84 35.84s16.043 35.84 35.84 35.84c19.797 0 35.84-16.043 35.84-35.84 0-19.755-16.043-35.84-35.84-35.84zM611.541 448c0-54.997-44.587-99.541-99.541-99.541s-99.541 44.544-99.541 99.541c0 54.997 44.587 99.541 99.541 99.541s99.541-44.544 99.541-99.541zM512 960c-282.752 0-512-229.248-512-512s229.248-512 512-512 512 229.248 512 512-229.248 512-512 512zM808.875 324.864c-4.907-108.587-65.365-168.747-173.696-173.739-31.872-1.451-42.069-1.792-123.179-1.792s-91.264 0.341-123.136 1.792c-108.544 4.992-168.747 65.237-173.739 173.739-1.451 31.829-1.792 42.027-1.792 123.136s0.341 91.264 1.792 123.136c4.992 108.544 65.237 168.747 173.739 173.696 31.872 1.493 42.027 1.835 123.136 1.835s91.307-0.341 123.179-1.835c108.587-4.992 168.832-65.365 173.696-173.696 1.451-31.872 1.792-42.027 1.792-123.136s-0.341-91.307-1.792-123.136z" />
<glyph unicode="&#xe903;" glyph-name="social-telegram" d="M1024 448c0 282.771-229.231 512-512 512-282.771 0-512-229.229-512-512 0-282.769 229.229-512 512-512 282.769 0 512 229.231 512 512zM408.894 365.755l226.115 209.724c9.924 9.051-2.166 13.466-15.342 5.256l-279.067-180.959-120.542 38.669c-26.032 8.194-26.219 26.579 5.845 39.798l469.724 186.161c21.453 10.011 42.16-5.296 33.97-39.046l-79.994-387.446c-5.585-27.534-21.771-34.119-44.197-21.402l-121.849 92.541-59.132-59.096c-6.551-6.556-11.97-11.979-23.83-11.979l8.299 127.777z" />
<glyph unicode="&#xe904;" glyph-name="iconmonstr-linkedin-4" d="M512 960c-282.752 0-512-229.248-512-512s229.248-512 512-512 512 229.248 512 512-229.248 512-512 512zM426.667 277.333h-85.333v256h85.333v-256zM384 571.349c-25.899 0-46.933 21.163-46.933 47.317 0 26.112 20.992 47.317 46.933 47.317s46.933-21.205 46.933-47.317c0-26.155-21.035-47.317-46.933-47.317zM725.333 277.333h-85.248v122.069c0 80.256-85.419 73.472-85.419 0v-122.069h-85.333v256h85.333v-46.635c37.205 68.949 170.667 74.069 170.667-66.048v-143.317z" />
<glyph unicode="&#xe905;" glyph-name="social-behance" d="M1017.006 442.908c0-278.775-225.994-504.769-504.769-504.769-278.778 0-504.772 225.994-504.772 504.769 0 278.778 225.994 504.772 504.772 504.772 278.775 0 504.769-225.994 504.769-504.772zM522.834 532.036c0 20.844-5.458 38.713-16.347 53.672-18.148 24.36-48.91 36.841-92.393 37.476h-172.272v-351.681h160.638c18.111 0 34.867 1.539 50.367 4.716 15.502 3.214 28.9 9.068 40.263 17.67 10.106 7.495 18.517 16.731 25.233 27.674 10.618 16.529 15.909 35.234 15.909 56.081 0 20.21-4.648 37.41-13.872 51.53-9.327 14.154-23.031 24.494-41.21 31.053 11.972 6.025 21.029 12.718 27.201 20.011 11.025 13.050 16.484 30.35 16.484 51.8zM312.88 484.52v77.596h77.605c17.061 0 31.104-1.84 42.16-5.487 12.754-5.288 19.132-16.094 19.132-32.523 0-14.726-4.85-25.031-14.484-30.854-9.7-5.823-22.283-8.732-37.717-8.732h-86.696zM312.88 426.328v-93.793h86.559c15.468 0 27.543 2.074 36.124 6.19 15.636 7.697 23.438 22.286 23.438 43.904 0 18.335-7.532 30.885-22.693 37.743-8.479 3.814-20.383 5.823-35.647 5.956h-87.782zM610.446 563.021h152.769v43.767h-152.769v-43.767zM795.267 487.799c-11.938 17.533-27.099 30.382-45.517 38.48-18.384 8.132-39.040 12.214-62.003 12.214-38.633 0-70.007-12.080-94.259-36.070-24.183-24.061-36.292-58.627-36.292-103.7 0-48.051 13.363-82.785 40.26-104.098 26.761-21.35 57.728-31.991 92.834-31.991 42.499 0 75.571 12.649 99.177 37.914 15.127 15.926 23.674 31.622 25.54 47.013h-70.38c-4.070-7.629-8.818-13.585-14.211-17.903-9.802-7.93-22.591-11.91-38.226-11.91-14.857 0-27.509 3.277-38.022 9.802-17.368 10.473-26.456 28.777-27.611 54.844h192.080c0.304 22.454-0.441 39.72-2.307 51.632-3.189 20.378-10.175 38.315-21.063 53.774zM628.252 427.267c2.512 16.93 8.65 30.35 18.384 40.255 9.737 9.904 23.506 14.857 41.145 14.857 16.279 0 29.881-4.651 40.937-13.986 10.923-9.404 17.095-23.057 18.352-41.125h-118.818z" />
<glyph unicode="&#xe906;" glyph-name="social-dribbble" d="M1003.127 443.046c0 271.244-219.883 491.13-491.127 491.13s-491.129-219.886-491.129-491.13c0-271.241 219.886-491.127 491.129-491.127s491.127 219.886 491.127 491.127zM792.645 443.436c0-18.98-1.932-37.932-5.729-56.409-3.7-18.036-9.18-35.743-16.362-52.67-7.016-16.628-15.717-32.652-25.888-47.594-10.016-14.848-21.557-28.78-34.232-41.478-12.703-12.645-26.682-24.153-41.522-34.21-14.992-10.099-31.038-18.789-47.677-25.838-16.951-7.143-34.7-12.615-52.719-16.309-18.501-3.805-37.523-5.748-56.53-5.748-19.021 0-38.040 1.943-56.514 5.748-18.047 3.695-35.796 9.166-52.733 16.309-16.636 7.049-32.699 15.739-47.691 25.838-14.842 10.057-28.819 21.565-41.497 34.21-12.689 12.698-24.227 26.63-34.26 41.478-10.113 14.942-18.83 30.966-25.873 47.594-7.182 16.926-12.676 34.636-16.39 52.67-3.754 18.476-5.674 37.429-5.674 56.409 0 18.994 1.918 37.988 5.675 56.422 3.714 18.036 9.209 35.771 16.39 52.67 7.043 16.639 15.76 32.677 25.875 47.622 10.030 14.859 21.57 28.763 34.26 41.478 12.675 12.645 26.654 24.125 41.494 34.169 14.992 10.141 31.055 18.829 47.691 25.891 16.938 7.158 34.686 12.645 52.733 16.312 18.474 3.777 37.495 5.693 56.516 5.693 19.005 0 38.026-1.916 56.528-5.693 18.020-3.668 35.768-9.155 52.719-16.312 16.639-7.061 32.685-15.75 47.677-25.891 14.842-10.044 28.821-21.524 41.525-34.169 12.675-12.714 24.213-26.618 34.232-41.478 10.168-14.945 18.869-30.983 25.885-47.622 7.182-16.899 12.662-34.633 16.362-52.67 3.797-18.435 5.729-37.429 5.729-56.422zM511.992 682.748c-19.473 0-38.372-2.354-56.475-6.705l0.39-0.522c5.676-7.591 49.346-66 89.207-139.084 89.694 33.576 124.006 84.895 125.138 86.589l0.022 0.030c-42.194 37.155-97.601 59.691-158.283 59.691zM579.484 466.072c1.768-4.19 3.495-8.294 5.181-12.399 80.755 10.146 160.339-6.404 166.632-7.713l0.282-0.058c-0.548 56.732-20.87 108.804-54.499 149.568l-0.014-0.019c-0.935-1.334-39.485-56.334-133.507-94.676 5.563-11.413 10.951-23.029 15.925-34.703zM645.923 244.96c-2.441 14.422-15.213 84.676-46.65 170.944 77.359 12.385 144.414-8.812 149.346-10.401-10.661-66.698-48.881-124.28-102.696-160.544zM554.366 404.82c33.723-87.524 47.646-160.818 51.197-181.73-28.766-12.216-60.38-18.966-93.571-18.966-55.584 0-106.618 19.063-147.307 50.66 0.501 1.082 46.681 100.288 188.089 149.515 0.332 0.122 0.67 0.227 1.007 0.335l0.26 0.080 0.324 0.105zM272.513 451.072c-0.021-0.797-0.048-1.586-0.074-2.372v-0.006c-0.059-1.749-0.117-3.484-0.117-5.258 0-61.482 23.228-117.533 61.409-159.916-0.083 0.125 65.506 116.318 194.842 158.083 3.125 1.038 6.305 1.971 9.457 2.873-6.014 13.6-12.581 27.23-19.445 40.669-123.406-36.892-241.825-34.238-246.071-34.074zM277.46 492.782l0.23-0.003c8.192-0.075 107.174-0.991 221.037 29.22-41.483 73.595-85.8 133.654-88.994 137.911-66.837-31.517-116.719-93.012-132.273-167.128z" />
<glyph unicode="&#xe907;" glyph-name="flash" horiz-adv-x="819" d="M617.472 406.357l-238.933-389.803c-4.69-7.574-12.937-12.216-21.845-12.288h-6.827c-4.782 0.010-9.348 1.983-12.629 5.461-3.265 3.492-4.879 8.212-4.437 12.971l19.114 220.501h-121.856c-9.168 0.099-17.603 5.031-22.187 12.971l-6.485 11.264c-3.258 5.345-3.258 12.063 0 17.408l238.933 389.803c4.816 7.783 13.377 12.453 22.528 12.288h6.827c4.782-0.009 9.349-1.984 12.629-5.461 3.263-3.491 4.881-8.212 4.437-12.971l-19.456-220.501h121.856c9.168-0.099 17.603-5.030 22.187-12.971l6.485-11.264c3.154-5.409 3.021-12.128-0.341-17.408z" />
<glyph unicode="&#xe908;" glyph-name="play-solid" horiz-adv-x="896" d="M848.8 530.6l-704 416.2c-57.2 33.8-144.8 1-144.8-82.6v-832.2c0-75 81.4-120.2 144.8-82.6l704 416c62.8 37 63 128.2 0 165.2z" />
<glyph unicode="&#xe909;" horiz-adv-x="1155" d="M714.547 697.799l-0.203-407.443c0-18.977-15.746-34.522-34.925-34.522h-639.347c-19.178 0-34.924 15.545-34.924 34.522v635.124c0 18.976 15.746 34.52 34.924 34.52h426.873c19.177 0 34.925-15.544 34.925-34.52v-102.252c0-38.356 29.674-68.838 68.837-68.838h108.914c19.177 0 34.925-15.545 34.925-34.52v-22.070z" />
<glyph unicode="&#xe90a;" horiz-adv-x="1155" d="M719.16 857.863l161.602-160.19c6.057-6.257 9.488-14.534 9.689-22.811l-0.405-310.586h-39.28l0.126 224.184c0 18.975-15.746 34.52-34.925 34.52h-108.912c-39.165 0-68.839 30.483-68.839 68.837v102.253c0 18.976-15.746 34.52-34.925 34.52h-426.873c-19.178 0-34.924-15.544-34.924-34.52v-635.125c0-18.975 15.746-34.52 34.924-34.52h469.815v-40.775h-480.118c-35.328 0-63.993 28.665-63.993 63.993v655.714c0 35.328 28.464 63.993 63.993 63.993h530.233c8.477 0 16.754-3.432 22.811-9.488zM841.406 675.267l-149.491 149.289c-6.057 6.258-16.754 2.019-16.754-6.864v-119.614c0-21.802 17.763-39.566 39.566-39.566h119.815c8.682 0 13.122 10.497 6.865 16.754z" />
<glyph unicode="&#xe914;" d="M818.266 896.845v-697.227c0-34.735-27.71-63.154-61.576-63.154h-695.114c-33.867 0-61.576 28.42-61.576 63.154v697.227c0 34.735 27.709 63.155 61.576 63.155h695.114c33.866 0 61.576-28.42 61.576-63.155z" />
<glyph unicode="&#xe915;" d="M123.629 738.485c0 58.102 45.977 105.257 102.627 105.257h695.114c56.647 0 102.63-47.155 102.63-105.257v-697.225c0-58.103-45.983-105.26-102.63-105.26h-695.114c-56.65 0-102.627 47.157-102.627 105.26v697.225zM982.943 41.251v697.23c0 34.735-27.701 63.154-61.572 63.154h-695.113c-33.867 0-61.576-28.42-61.576-63.154v-697.23c0-34.737 27.709-63.153 61.576-63.153h695.113c33.871 0 61.572 28.416 61.572 63.153z" />
<glyph unicode="&#xe916;" d="M731.357 189.081c-23.518 3.165-45.399 14.070-62.355 31.078l-165.847 170.040c-12.169 12.493-28.679 19.52-45.9 19.535h-18.187c-5.979 0-10.826 4.969-10.826 11.1v22.198c0 6.13 4.847 11.1 10.826 11.1h18.187c28.73 0.052 56.303-11.607 76.645-32.41l67.551-69.481 67.551 69.481c16.956 17.007 38.837 27.913 62.355 31.078v45.729c-0.026 4.481 2.579 8.538 6.603 10.286s8.679 0.842 11.801-2.294l64.953-66.595c4.152-4.392 4.152-11.37 0-15.761l-64.953-66.596c-3.093-3.109-7.696-4.028-11.701-2.338s-6.642 5.667-6.703 10.108v42.62c-11.96-2.743-22.919-8.9-31.611-17.758l-67.768-69.259 67.768-69.259c8.692-8.858 19.651-15.016 31.611-17.759v42.621c-0.026 4.481 2.579 8.538 6.603 10.286s8.679 0.842 11.801-2.294l64.953-66.595c4.152-4.392 4.152-11.37 0-15.761l-64.953-66.596c-3.093-3.109-7.696-4.028-11.701-2.338s-6.642 5.667-6.703 10.108v45.729zM533.899 220.16l40.92 42.177-30.528 31.3-41.137-41.956c-12.169-12.492-28.679-19.519-45.9-19.535h-18.187c-5.979 0-10.826-4.969-10.826-11.099v-22.199c0-6.13 4.847-11.099 10.826-11.099h18.187c28.73-0.053 56.303 11.607 76.645 32.41z" />
<glyph unicode="&#xe917;" d="M818.266 896.845v-697.227c0-34.735-27.71-63.154-61.576-63.154h-695.114c-33.867 0-61.576 28.42-61.576 63.154v697.227c0 34.735 27.709 63.155 61.576 63.155h695.114c33.866 0 61.576-28.42 61.576-63.155z" />
<glyph unicode="&#xe918;" d="M123.629 738.485c0 58.102 45.977 105.257 102.627 105.257h695.114c56.647 0 102.63-47.155 102.63-105.257v-697.225c0-58.103-45.983-105.26-102.63-105.26h-695.114c-56.65 0-102.627 47.157-102.627 105.26v697.225zM982.943 41.251v697.23c0 34.735-27.701 63.154-61.572 63.154h-695.113c-33.867 0-61.576-28.42-61.576-63.154v-697.23c0-34.737 27.709-63.153 61.576-63.153h695.113c33.871 0 61.572 28.416 61.572 63.153z" />
<glyph unicode="&#xe919;" d="M856.272 374.735c0 22.78-18.443 41.246-41.195 41.246h-73.122c7.333 12.511 11.241 26.739 11.329 41.245h61.793c0 22.78-18.444 41.245-41.196 41.245h-31.927c-14.792 25.241-41.832 40.746-71.062 40.746s-56.271-15.506-71.062-40.746h-52.524c-34.127 0-61.793-27.699-61.793-61.868v-268.095c0-22.779 18.444-41.245 41.196-41.245h288.368c22.751 0 41.195 18.466 41.195 41.245v206.227zM670.893 498.471c22.752 0 41.196-18.466 41.196-41.245s-18.443-41.246-41.196-41.246c-22.751 0-41.195 18.466-41.195 41.246s18.443 41.245 41.195 41.245zM547.307 457.225c-11.375 0-20.597-9.233-20.597-20.622s9.222-20.623 20.597-20.623h52.524c-7.332 12.512-11.24 26.739-11.328 41.245h-41.196zM815.078 209.755h-144.184c-11.375 0-20.597 9.234-20.597 20.623v82.491c0 11.389 9.222 20.622 20.597 20.622h144.184v-123.736zM701.79 251.001c-5.688 0-10.298 4.616-10.298 10.311v20.623c0 5.695 4.611 10.312 10.298 10.312h20.598c5.688 0 10.298-4.617 10.298-10.312v-20.623c0-5.695-4.611-10.311-10.298-10.311h-20.598z" />
<glyph unicode="&#xe91a;" horiz-adv-x="1015" d="M811.272 891.667v-691.268c0-34.438-27.473-62.615-61.050-62.615h-689.173c-33.577 0-61.050 28.177-61.050 62.615v691.268c0 34.438 27.473 62.615 61.050 62.615h689.173c33.577 0 61.050-28.177 61.050-62.615z" />
<glyph unicode="&#xe91b;" horiz-adv-x="1015" d="M122.573 734.66c0 57.606 45.584 104.358 101.75 104.358h689.173c56.162 0 101.752-46.752 101.752-104.358v-691.271c0-57.607-45.59-104.352-101.752-104.352h-689.173c-56.166 0-101.75 46.745-101.75 104.352v691.271zM974.542 43.389v691.267c0 34.438-27.464 62.615-61.046 62.615h-689.172c-33.578 0-61.050-28.177-61.050-62.615v-691.267c0-34.44 27.472-62.613 61.050-62.613h689.172c33.582 0 61.046 28.173 61.046 62.613z" />
<glyph unicode="&#xe91c;" horiz-adv-x="1015" d="M583.899 604.196h180.044c37.288 0 67.517-30.228 67.517-67.517v-360.087c0-37.288-30.228-67.517-67.517-67.517h-180.044c-37.288 0-67.517 30.228-67.517 67.517v360.087c0 37.288 30.228 67.517 67.517 67.517zM583.899 154.086h180.044c12.43 0 22.506 10.076 22.506 22.506v360.087c0 12.43-10.076 22.506-22.506 22.506s-22.505-10.076-22.505-22.506c0-12.429-10.076-22.505-22.505-22.505h-90.022c-12.43 0-22.506 10.076-22.506 22.505s-10.075 22.506-22.505 22.506c-12.429 0-22.505-10.076-22.505-22.506v-360.087c0-12.43 10.076-22.506 22.505-22.506z" />
<glyph unicode="&#xe91d;" horiz-adv-x="1015" d="M811.272 891.667v-691.268c0-34.438-27.473-62.615-61.050-62.615h-689.173c-33.577 0-61.050 28.177-61.050 62.615v691.268c0 34.438 27.473 62.615 61.050 62.615h689.173c33.577 0 61.050-28.177 61.050-62.615z" />
<glyph unicode="&#xe91e;" horiz-adv-x="1015" d="M122.573 734.66c0 57.606 45.584 104.358 101.75 104.358h689.173c56.162 0 101.752-46.752 101.752-104.358v-691.271c0-57.607-45.59-104.352-101.752-104.352h-689.173c-56.166 0-101.75 46.745-101.75 104.352v691.271zM974.542 43.389v691.267c0 34.438-27.464 62.615-61.046 62.615h-689.172c-33.578 0-61.050-28.177-61.050-62.615v-691.267c0-34.44 27.472-62.613 61.050-62.613h689.172c33.582 0 61.046 28.173 61.046 62.613z" />
<glyph unicode="&#xe91f;" horiz-adv-x="1015" d="M756.205 277.080h34.462c44.41 0 80.41-36.001 80.41-80.41s-36-80.41-80.41-80.41c-44.409 0-80.41 36.001-80.41 80.41v34.462h-91.897v-34.462c0-44.409-36-80.41-80.41-80.41s-80.41 36.001-80.41 80.41c0 44.409 36.001 80.41 80.41 80.41h34.462v91.897h-34.462c-44.409 0-80.41 36.001-80.41 80.41s36.001 80.41 80.41 80.41c44.41 0 80.41-36.001 80.41-80.41v-34.462h91.897v34.462c0 44.409 36.001 80.41 80.41 80.41s80.41-36.001 80.41-80.41c0-44.409-36-80.41-80.41-80.41h-34.462v-91.897zM790.666 483.85c-19.032 0-34.462-15.428-34.462-34.462v-34.462h34.462c19.033 0 34.462 15.429 34.462 34.462s-15.428 34.462-34.462 34.462zM537.948 414.927c-19.032 0-34.462 15.429-34.462 34.462s15.429 34.462 34.462 34.462c19.033 0 34.462-15.428 34.462-34.462v-34.462h-34.462zM537.948 162.209c19.033 0 34.462 15.429 34.462 34.462v34.462h-34.462c-19.032 0-34.462-15.428-34.462-34.462s15.429-34.462 34.462-34.462zM618.359 277.080v91.897h91.897v-91.897h-91.897zM756.205 196.67c0-19.032 15.429-34.462 34.462-34.462s34.462 15.429 34.462 34.462c0 19.033-15.428 34.462-34.462 34.462h-34.462v-34.462z" />
<glyph unicode="&#xe920;" horiz-adv-x="1015" d="M811.272 891.667v-691.268c0-34.438-27.473-62.615-61.050-62.615h-689.173c-33.577 0-61.050 28.177-61.050 62.615v691.268c0 34.438 27.473 62.615 61.050 62.615h689.173c33.577 0 61.050-28.177 61.050-62.615z" />
<glyph unicode="&#xe921;" horiz-adv-x="1015" d="M122.573 734.66c0 57.606 45.584 104.358 101.75 104.358h689.173c56.162 0 101.752-46.752 101.752-104.358v-691.271c0-57.607-45.59-104.352-101.752-104.352h-689.173c-56.166 0-101.75 46.745-101.75 104.352v691.271zM974.542 43.389v691.267c0 34.438-27.464 62.615-61.046 62.615h-689.172c-33.578 0-61.050-28.177-61.050-62.615v-691.267c0-34.44 27.472-62.613 61.050-62.613h689.172c33.582 0 61.046 28.173 61.046 62.613z" />
<glyph unicode="&#xe922;" horiz-adv-x="1015" d="M462.99 291.96c33.738 24.937 80.552 20.792 109.473-9.696l208.871 210.881c1.96 2.055 4.678 3.198 7.504 3.157h6.045c5.756 0 10.423-4.711 10.423-10.524v-31.569c-0.015-16.739-6.613-32.788-18.344-44.618l-104.227-105.23 21.888-22.098c28.921 30.487 75.736 34.633 109.473 9.696s43.963-71.249 23.913-108.294c-20.050-37.045-64.176-53.369-103.185-38.172s-60.839 57.214-51.047 98.256h-20.845c-5.469 0.023-10.709 2.215-14.592 6.103l-9.798 9.892-9.797-9.892c-3.882-3.888-9.123-6.080-14.592-6.103h-20.845c9.792-41.041-12.037-83.059-51.047-98.256s-83.135 1.126-103.185 38.172c-20.050 37.045-9.824 83.355 23.913 108.294zM798.026 199.203c11.107 16.664 9.005 38.93-5.020 53.174-7.782 7.905-18.353 12.37-29.392 12.418-19.894 0.084-37.076-14.035-41.033-33.718-3.958-19.685 6.412-39.449 24.764-47.203s39.574-1.335 50.681 15.329zM484.079 193.030c-11.897 10.287-17.080 26.439-13.416 41.815s15.554 27.382 30.784 31.081c15.23 3.699 31.228-1.533 41.417-13.546 11.897-10.287 17.080-26.439 13.416-41.815s-15.554-27.382-30.784-31.081c-15.23-3.699-31.228 1.534-41.417 13.546zM488.248 496.302c2.826 0.041 5.543-1.102 7.504-3.157l116.943-118.279-44.192-44.618-78.379 79.343c-11.73 11.829-18.329 27.878-18.344 44.618v31.569c0 5.812 4.667 10.524 10.423 10.524h6.045z" />
<glyph unicode="&#xe923;" d="M818.266 896.845v-697.227c0-34.735-27.71-63.154-61.576-63.154h-695.114c-33.867 0-61.576 28.42-61.576 63.154v697.227c0 34.735 27.709 63.155 61.576 63.155h695.114c33.866 0 61.576-28.42 61.576-63.155z" />
<glyph unicode="&#xe924;" d="M123.629 738.485c0 58.102 45.977 105.257 102.627 105.257h695.114c56.647 0 102.63-47.155 102.63-105.257v-697.225c0-58.103-45.983-105.26-102.63-105.26h-695.114c-56.65 0-102.627 47.157-102.627 105.26v697.225zM982.943 41.251v697.23c0 34.735-27.701 63.154-61.572 63.154h-695.113c-33.867 0-61.576-28.42-61.576-63.154v-697.23c0-34.737 27.709-63.153 61.576-63.153h695.113c33.871 0 61.572 28.416 61.572 63.153z" />
<glyph unicode="&#xe925;" d="M612.585 442.944c0 35.944-28.879 65.13-64.516 65.13-35.483 0-64.362-29.186-64.516-65.13 0-35.945 28.879-65.131 64.516-65.131s64.516 29.186 64.516 65.131zM368.496 168.444h494.466c8.602 0 15.669 7.066 15.669 15.668v123.194c0 4.302-1.537 8.602-4.148 11.982l-101.842 132.103c-6.759 9.063-19.97 10.292-28.418 2.766l-179.415-158.525c-6.758-5.837-16.282-6.605-23.809-1.69l-93.394 60.983c-8.91 5.684-20.583 3.534-26.728-5.069l-68.509-96.773c-2.304-3.379-3.533-7.22-3.533-11.367v-53.609c0-10.906 8.909-19.663 19.662-19.663z" />
</font>
</defs>
</svg>
