<svg width="544" height="536" fill="none" xmlns="http://www.w3.org/2000/svg"><g opacity=".25"><path d="M425.238 157.005l-.121 243.599c0 11.345-9.433 20.638-20.923 20.638H21.161c-11.49 0-20.923-9.293-20.923-20.638V20.881C.238 9.536 9.672.242 21.161.242h255.74c11.49 0 20.923 9.294 20.923 20.639v61.133c0 22.932 17.778 41.157 41.241 41.157h65.25c11.49 0 20.923 9.293 20.923 20.638v13.196z" fill="#FAFF0F"/><path opacity=".8" d="M543.884 235.264l-.137 276.634c0 12.883-10.691 23.437-23.712 23.437H85.95c-13.021 0-23.712-10.554-23.712-23.437V80.68c0-12.884 10.691-23.438 23.712-23.438h289.826c13.021 0 23.711 10.554 23.711 23.438v69.424c0 26.041 20.148 46.738 46.738 46.738h73.947c13.021 0 23.712 10.553 23.712 23.437v14.985z" fill="#19C2B5"/></g></svg>