<svg width="53" height="40" viewBox="1 0 53 40" fill="none" xmlns="http://www.w3.org/2000/svg"><path fill-rule="evenodd" clip-rule="evenodd" d="M11.94.171a1.893 1.893 0 01.942 2.512l-7.02 15.331H16.86a1.9 1.9 0 011.903 1.896v17.37a1.9 1.9 0 01-1.904 1.896 1.9 1.9 0 01-1.903-1.896V21.805H2.903c-.647 0-1.25-.327-1.6-.87a1.889 1.889 0 01-.131-1.812L9.418 1.11A1.906 1.906 0 0111.94.17zM41.9 5.492c-6.742-3.274-14.67-1.149-18.78 4.626a1.908 1.908 0 01-2.654.45 1.89 1.89 0 01-.452-2.643C25.21.627 35.161-1.998 43.57 2.085c9.33 4.531 13.301 15.655 8.79 24.873-4.512 9.218-15.757 12.953-25.09 8.42a1.892 1.892 0 01-.876-2.534 1.907 1.907 0 012.545-.873c7.49 3.638 16.432.614 20-6.674 3.567-7.288.452-16.167-7.039-19.805z" fill="#fff"/><path fill-rule="evenodd" clip-rule="evenodd" d="M32.719 35.384a1.9 1.9 0 011.903-1.895h17.763a1.9 1.9 0 011.903 1.895 1.9 1.9 0 01-1.903 1.896H34.622a1.9 1.9 0 01-1.903-1.896z" fill="#fff"/></svg>