<svg width="16" height="28" viewBox="0 -3 16 22" fill="none" xmlns="http://www.w3.org/2000/svg">
    <path
        d="M14.09 9.21988L7.09001 20.6399C6.95265 20.8618 6.71101 20.9977 6.45001 20.9999H6.25001C6.10994 20.9996 5.97614 20.9418 5.88001 20.8399C5.78437 20.7376 5.73706 20.5993 5.75001 20.4599L6.31001 13.9999H2.74001C2.47142 13.997 2.2243 13.8525 2.09001 13.6199L1.90001 13.2899C1.80457 13.1333 1.80457 12.9365 1.90001 12.7799L8.90001 1.35988C9.0411 1.13185 9.29191 0.995045 9.56001 0.99988H9.76001C9.90008 1.00014 10.0339 1.058 10.13 1.15988C10.2256 1.26215 10.273 1.40046 10.26 1.53988L9.69001 7.99988H13.26C13.5286 8.00278 13.7757 8.14725 13.91 8.37988L14.1 8.70988C14.1924 8.86835 14.1885 9.06515 14.09 9.21988Z"
        stroke="#FFD703" stroke-width="2" />
</svg>