<svg width="24" height="30" viewBox="0 -3 24 24" fill="none" xmlns="http://www.w3.org/2000/svg">
    <path
        d="M18.09 10.22L11.09 21.64C10.9526 21.8619 10.711 21.9979 10.45 22H10.25C10.1099 21.9997 9.97614 21.9419 9.88001 21.84C9.78437 21.7377 9.73706 21.5994 9.75001 21.46L10.31 15H6.74001C6.47142 14.9971 6.2243 14.8526 6.09001 14.62L5.90001 14.29C5.80457 14.1334 5.80457 13.9366 5.90001 13.78L12.9 2.36C13.0411 2.13197 13.2919 1.99517 13.56 2H13.76C13.9001 2.00026 14.0339 2.05812 14.13 2.16C14.2256 2.26228 14.273 2.40058 14.26 2.54L13.69 9H17.26C17.5286 9.0029 17.7757 9.14737 17.91 9.38L18.1 9.71C18.1924 9.86847 18.1885 10.0653 18.09 10.22Z"
        fill="#2C2C2C" />
</svg>