<svg width="131" height="40" viewBox="0 0 131 40" fill="none" xmlns="http://www.w3.org/2000/svg">
<path fill-rule="evenodd" clip-rule="evenodd" d="M11.9397 0.171313C12.896 0.605667 13.3178 1.72997 12.8817 2.68251L5.86263 18.0142H16.8595C17.9106 18.0142 18.7627 18.8629 18.7627 19.9098V37.2803C18.7627 38.3271 17.9106 39.1758 16.8595 39.1758C15.8085 39.1758 14.9564 38.3271 14.9564 37.2803V21.8054H2.90314C2.25568 21.8054 1.65263 21.4776 1.30242 20.9351C0.952211 20.3927 0.902904 19.7101 1.17154 19.1234L9.41848 1.10957C9.85457 0.157033 10.9834 -0.263041 11.9397 0.171313Z" fill="white"/>
<path d="M73.3399 17.0606C71.3402 17.0606 69.6738 16.4491 68.3408 15.2258C67.0078 14.0027 66.3412 12.5118 66.3412 10.7535C66.3412 8.99516 67.016 7.50439 68.3658 6.28118C69.7156 5.04269 71.3902 4.42344 73.3899 4.42344C75.3895 4.42344 77.0559 5.03504 78.389 6.25825C79.7387 7.48145 80.4135 8.97987 80.4135 10.7535C80.4135 12.4966 79.7387 13.9874 78.389 15.2258C77.0391 16.4491 75.3561 17.0606 73.3399 17.0606ZM73.3899 14.6525C74.5897 14.6525 75.5561 14.2779 76.2893 13.5286C77.0225 12.7795 77.3891 11.8544 77.3891 10.7535C77.3891 9.66792 77.0059 8.75052 76.2393 8.00131C75.4728 7.23681 74.5063 6.85456 73.3399 6.85456C72.1568 6.85456 71.1986 7.22916 70.4654 7.97837C69.7322 8.72758 69.3657 9.65263 69.3657 10.7535C69.3657 11.8238 69.7488 12.7412 70.5154 13.5058C71.2819 14.2702 72.24 14.6525 73.3899 14.6525Z" fill="white"/>
<path d="M87.7369 16.8771C87.2349 16.8771 86.78 16.5823 86.5768 16.1251L82.2763 6.45108C81.905 5.61557 82.5192 4.67573 83.4365 4.67573H83.8753C84.3953 4.67573 84.8626 4.99163 85.0545 5.47288L87.1109 10.6286C87.5343 11.6901 89.042 11.6919 89.468 10.6315L91.5412 5.47005C91.7338 4.99031 92.2003 4.67573 92.7191 4.67573H93.0888C94.0054 4.67573 94.6195 5.61383 94.2499 6.44911L89.9693 16.1231C89.7664 16.5814 89.3111 16.8771 88.8083 16.8771H87.7369Z" fill="white"/>
<path d="M102.894 17.0606C100.961 17.0606 99.3451 16.472 98.0454 15.2947C96.7623 14.1173 96.1207 12.596 96.1207 10.7306C96.1207 8.97223 96.7289 7.48145 97.9454 6.25825C99.1618 5.03504 100.703 4.42344 102.57 4.42344C104.569 4.42344 106.119 5.05033 107.219 6.30412C108.335 7.54261 108.893 9.0869 108.893 10.937C108.893 11.3899 108.513 11.7168 108.058 11.7168H100.651C99.8644 11.7168 99.2449 12.4499 99.6545 13.1189C99.8574 13.4503 100.112 13.7397 100.42 13.9874C101.103 14.5226 101.945 14.7901 102.944 14.7901C103.925 14.7901 104.844 14.5159 105.702 13.9673C106.201 13.6483 106.857 13.6204 107.316 13.9941C107.848 14.4275 107.915 15.2276 107.371 15.6468C106.149 16.5894 104.656 17.0606 102.894 17.0606ZM99.5505 8.5011C99.1917 9.18049 99.8083 9.88198 100.579 9.88198H104.482C105.236 9.88198 105.85 9.2101 105.527 8.53137C105.36 8.18057 105.141 7.86627 104.869 7.58848C104.286 6.99217 103.511 6.69402 102.545 6.69402C101.628 6.69402 100.862 6.99217 100.245 7.58848C99.9629 7.85429 99.7314 8.15849 99.5505 8.5011Z" fill="white"/>
<path d="M113.199 16.7854C112.499 16.7854 111.931 16.2196 111.931 15.5217V5.93945C111.931 5.24152 112.499 4.67573 113.199 4.67573H114.471C114.738 4.67573 114.955 4.89176 114.955 5.15824C114.955 5.67809 115.848 5.92292 116.232 5.57094C116.888 4.96954 117.683 4.60811 118.618 4.48664C119.179 4.41363 119.629 4.8915 119.629 5.45567V7.2078C119.629 7.30404 119.551 7.38206 119.454 7.38206C118.088 7.38206 116.996 7.79489 116.18 8.62056C115.363 9.43093 114.955 10.6159 114.955 12.1754V15.5217C114.955 16.2196 114.387 16.7854 113.686 16.7854H113.199Z" fill="white"/>
<path fill-rule="evenodd" clip-rule="evenodd" d="M41.9004 5.49246C35.1579 2.21813 27.2303 4.34305 23.1192 10.1179C22.5112 10.9719 21.3233 11.1733 20.466 10.5677C19.6085 9.96219 19.4063 8.77899 20.0143 7.92499C25.2099 0.626707 35.1611 -1.99799 43.5685 2.08476C52.9001 6.61638 56.8723 17.7405 52.3601 26.9584C47.8479 36.1764 36.6026 39.9106 27.2709 35.3789C26.3261 34.9201 25.9337 33.7853 26.3943 32.8443C26.855 31.9033 27.9942 31.5124 28.939 31.9712C36.4297 35.6089 45.3714 32.5849 48.9389 25.297C52.5063 18.0092 49.3911 9.13011 41.9004 5.49246Z" fill="white"/>
<path fill-rule="evenodd" clip-rule="evenodd" d="M32.719 35.3842C32.719 34.3373 33.5711 33.4886 34.6222 33.4886H52.3848C53.4359 33.4886 54.288 34.3373 54.288 35.3842C54.288 36.4312 53.4359 37.2798 52.3848 37.2798H34.6222C33.5711 37.2798 32.719 36.4312 32.719 35.3842Z" fill="white"/>
<path d="M82.8351 36.9937C82.1344 36.9937 81.5663 36.4279 81.5663 35.7299V20.8514C81.5663 20.1534 82.1344 19.5877 82.8351 19.5877H83.2854C83.9861 19.5877 84.5541 20.1534 84.5541 20.8514V35.7299C84.5541 36.4279 83.9861 36.9937 83.2854 36.9937H82.8351Z" fill="white"/>
<path d="M94.6566 37.2798C92.6812 37.2798 91.0351 36.644 89.7181 35.3723C88.4012 34.1006 87.7427 32.5508 87.7427 30.7228C87.7427 28.8947 88.4094 27.3449 89.7429 26.0732C91.0762 24.7856 92.7305 24.1419 94.706 24.1419C96.6813 24.1419 98.3276 24.7776 99.6445 26.0493C100.978 27.321 101.645 28.8788 101.645 30.7228C101.645 32.5349 100.978 34.0847 99.6445 35.3723C98.3111 36.644 96.6485 37.2798 94.6566 37.2798ZM94.706 34.7762C95.8913 34.7762 96.846 34.3867 97.5704 33.6079C98.2946 32.8289 98.6568 31.8672 98.6568 30.7228C98.6568 29.5942 98.2782 28.6405 97.5209 27.8615C96.7637 27.0667 95.8089 26.6693 94.6566 26.6693C93.4879 26.6693 92.5412 27.0588 91.817 27.8376C91.0927 28.6166 90.7305 29.5783 90.7305 30.7228C90.7305 31.8355 91.1091 32.7893 91.8664 33.584C92.6236 34.3788 93.5701 34.7762 94.706 34.7762Z" fill="white"/>
<path d="M108.906 37.0891C108.396 37.0891 107.935 36.7841 107.737 36.3154L103.446 26.158C103.094 25.3251 103.708 24.4042 104.615 24.4042H105.038C105.566 24.4042 106.039 24.7296 106.225 25.2216L108.239 30.5347C108.651 31.6232 110.197 31.625 110.612 30.5374L112.642 25.2188C112.829 24.7284 113.301 24.4042 113.828 24.4042H114.182C115.088 24.4042 115.702 25.3233 115.352 26.156L111.081 36.3135C110.883 36.7832 110.422 37.0891 109.911 37.0891H108.906Z" fill="white"/>
<path d="M123.853 37.2798C121.944 37.2798 120.347 36.6679 119.063 35.4438C117.795 34.2198 117.161 32.6382 117.161 30.6989C117.161 28.8708 117.762 27.321 118.964 26.0493C120.166 24.7776 121.688 24.1419 123.532 24.1419C125.507 24.1419 127.038 24.7936 128.125 26.0971C129.227 27.3846 129.779 28.9901 129.779 30.9135C129.779 31.3832 129.385 31.7242 128.914 31.7242H121.643C120.86 31.7242 120.241 32.4465 120.621 33.1276C120.827 33.4947 121.089 33.8138 121.408 34.0847C122.083 34.6411 122.915 34.9193 123.902 34.9193C124.852 34.9193 125.744 34.6452 126.577 34.0971C127.097 33.7546 127.792 33.7244 128.266 34.1296C128.774 34.5662 128.84 35.3427 128.324 35.7704C127.107 36.7767 125.617 37.2798 123.853 37.2798ZM120.523 28.4355C120.191 29.1243 120.806 29.8167 121.573 29.8167H125.412C126.164 29.8167 126.775 29.1523 126.477 28.4653C126.309 28.0792 126.085 27.735 125.804 27.4323C125.228 26.8124 124.462 26.5024 123.507 26.5024C122.602 26.5024 121.845 26.8124 121.236 27.4323C120.943 27.7226 120.705 28.057 120.523 28.4355Z" fill="white"/>
</svg>
