<svg width="544" height="536" viewBox="0 0 544 536" fill="none" xmlns="http://www.w3.org/2000/svg">
<g opacity="0.1">
<path opacity="0.5" d="M425.238 157.005L425.117 400.604C425.117 411.949 415.684 421.242 404.194 421.242H21.1612C9.67172 421.242 0.238281 411.949 0.238281 400.604V20.8808C0.238281 9.53558 9.67172 0.242188 21.1612 0.242188H276.901C288.391 0.242188 297.824 9.53558 297.824 20.8808V82.0144C297.824 104.946 315.602 123.171 339.065 123.171H404.315C415.805 123.171 425.238 132.464 425.238 143.809V157.005Z" fill="#FAFF0F"/>
<path opacity="0.8" d="M543.884 235.264L543.747 511.898C543.747 524.781 533.056 535.335 520.035 535.335H85.9498C72.929 535.335 62.2383 524.781 62.2383 511.898V80.6796C62.2383 67.7959 72.929 57.2422 85.9498 57.2422H375.776C388.797 57.2422 399.487 67.7959 399.487 80.6796V150.104C399.487 176.145 419.635 196.842 446.225 196.842H520.172C533.193 196.842 543.884 207.395 543.884 220.279V235.264Z" fill="#19C2B5"/>
</g>
</svg>
