<svg width="46" height="46" viewBox="0 0 46 46" fill="none" xmlns="http://www.w3.org/2000/svg">
<path fill-rule="evenodd" clip-rule="evenodd" d="M46 23C46 35.7025 35.7025 46 23 46C10.2974 46 0 35.7025 0 23C0 10.2974 10.2974 0 23 0C35.7025 0 46 10.2974 46 23ZM17.8674 13.2634C17.8354 11.7961 16.7969 10.6786 15.1104 10.6786C13.424 10.6786 12.3214 11.7961 12.3214 13.2634C12.3214 14.7002 13.3914 15.8499 15.0464 15.8499H15.0779C16.7969 15.8499 17.8674 14.7002 17.8674 13.2634ZM17.5427 17.8924H12.6129V32.8567H17.5427V17.8924ZM29.6454 17.541C32.8894 17.541 35.3214 19.6803 35.3214 24.2767L35.3212 32.8567H30.3916V24.8508C30.3916 22.8399 29.6783 21.4677 27.8937 21.4677C26.5317 21.4677 25.7205 22.3928 25.3642 23.2862C25.2338 23.6065 25.2018 24.0526 25.2018 24.4998V32.8571H20.2715C20.2715 32.8571 20.3364 19.297 20.2715 17.8928H25.2018V20.0124C25.8561 18.9935 27.028 17.541 29.6454 17.541Z" fill="#3FC2BB"/>
</svg>
