<svg width="37" height="36" viewBox="0 0 37 36" fill="none" xmlns="http://www.w3.org/2000/svg">
<g clip-path="url(#clip0)">
<path fill-rule="evenodd" clip-rule="evenodd" d="M36.2458 18.179C36.2458 27.9797 28.3008 35.9248 18.5 35.9248C8.69923 35.9248 0.754135 27.9797 0.754135 18.179C0.754135 8.3782 8.69923 0.433105 18.5 0.433105C28.3008 0.433105 36.2458 8.3782 36.2458 18.179ZM28.6405 18.1649C28.6405 18.8507 28.5707 19.5355 28.4335 20.2031C28.2998 20.8548 28.1018 21.4946 27.8423 22.1062C27.5888 22.707 27.2744 23.286 26.9069 23.8259C26.545 24.3624 26.128 24.8658 25.67 25.3246C25.211 25.7815 24.7059 26.1973 24.1697 26.5607C23.628 26.9256 23.0482 27.2396 22.447 27.4943C21.8345 27.7524 21.1932 27.9501 20.5421 28.0836C19.8736 28.2211 19.1863 28.2913 18.4995 28.2913C17.8122 28.2913 17.125 28.2211 16.4575 28.0836C15.8054 27.9501 15.1641 27.7524 14.5521 27.4943C13.951 27.2396 13.3706 26.9256 12.8289 26.5607C12.2926 26.1973 11.7876 25.7815 11.3295 25.3246C10.871 24.8658 10.4541 24.3624 10.0916 23.8259C9.72618 23.286 9.41123 22.707 9.15673 22.1062C8.89723 21.4946 8.6987 20.8547 8.5645 20.2031C8.42884 19.5355 8.3595 18.8507 8.3595 18.1649C8.3595 17.4786 8.4288 16.7923 8.56454 16.1262C8.69874 15.4745 8.89727 14.8337 9.15677 14.2231C9.41127 13.6219 9.72622 13.0424 10.0917 12.5024C10.4541 11.9655 10.8711 11.4631 11.3296 11.0037C11.7876 10.5468 12.2927 10.132 12.8289 9.76908C13.3706 9.40266 13.951 9.08873 14.5521 8.83356C15.1641 8.57491 15.8054 8.37667 16.4575 8.24417C17.125 8.10771 17.8123 8.03847 18.4996 8.03847C19.1863 8.03847 19.8736 8.10771 20.5421 8.24417C21.1932 8.37671 21.8345 8.57495 22.447 8.83356C23.0482 9.08869 23.628 9.40266 24.1697 9.76908C24.706 10.132 25.2111 10.5468 25.6701 11.0037C26.1281 11.4631 26.545 11.9655 26.907 12.5024C27.2744 13.0424 27.5888 13.6219 27.8423 14.2231C28.1018 14.8337 28.2998 15.4745 28.4335 16.1262C28.5707 16.7923 28.6405 17.4786 28.6405 18.1649ZM18.4997 9.51789C20.6923 9.51789 22.6943 10.3322 24.2189 11.6747L24.2181 11.6758C24.1772 11.737 22.9374 13.5913 19.6965 14.8045C18.2562 12.1638 16.6783 10.0533 16.4732 9.77902L16.4591 9.76017C17.1132 9.60295 17.7961 9.51789 18.4997 9.51789ZM20.9384 17.347C20.7587 16.9252 20.564 16.5055 20.363 16.0931C23.7603 14.7077 25.1532 12.7204 25.187 12.6722L25.1875 12.6715C26.4026 14.1444 27.1369 16.0259 27.1567 18.0758L27.1465 18.0737L27.1465 18.0737C26.9191 18.0264 24.0435 17.4284 21.1256 17.795C21.0647 17.6467 21.0023 17.4984 20.9384 17.347ZM23.339 25.3364C25.2835 24.0261 26.6645 21.9455 27.0497 19.5355C26.8715 19.4781 24.4486 18.7122 21.6534 19.1597C22.7893 22.2768 23.2508 24.8153 23.339 25.3364ZM20.0308 19.5602L20.0191 19.564L20.0097 19.5669C19.9975 19.5708 19.9853 19.5746 19.9733 19.579C14.8638 21.3577 13.1952 24.9423 13.1771 24.9814C14.6473 26.1231 16.4913 26.8119 18.4997 26.8119C19.699 26.8119 20.8413 26.568 21.8807 26.1266C21.7524 25.371 21.2493 22.7227 20.0308 19.5602ZM9.84666 17.889C10.0001 17.8949 14.2789 17.9908 18.7379 16.6578C18.9859 17.1434 19.2232 17.6359 19.4405 18.1273C19.3266 18.1599 19.2117 18.1936 19.0988 18.2311C14.4255 19.7402 12.0556 23.9386 12.0586 23.9431C10.679 22.4117 9.83972 20.3864 9.83972 18.1649C9.83972 18.1008 9.84183 18.0381 9.84396 17.9749L9.84396 17.9748L9.84396 17.9748L9.84397 17.9748V17.9747L9.84397 17.9747C9.84492 17.9463 9.84589 17.9178 9.84666 17.889ZM10.0254 16.3819C10.5874 13.7039 12.3898 11.4819 14.8048 10.3431C14.9202 10.4969 16.5215 12.667 18.0204 15.3262C13.9062 16.4178 10.3297 16.3847 10.0337 16.382L10.0254 16.3819Z" fill="white"/>
</g>
<defs>
<clipPath id="clip0">
<rect width="35.4917" height="35.4917" fill="white" transform="translate(0.754135 0.433105)"/>
</clipPath>
</defs>
</svg>
