<svg width="46" height="46" viewBox="0 0 46 46" fill="none" xmlns="http://www.w3.org/2000/svg">
<path fill-rule="evenodd" clip-rule="evenodd" d="M46 23C46 35.7025 35.7025 46 23 46C10.2974 46 0 35.7025 0 23C0 10.2974 10.2974 0 23 0C35.7025 0 46 10.2974 46 23ZM18.3683 26.6946L28.5258 17.2734C28.9716 16.8668 28.4285 16.6685 27.8366 17.0373L15.3004 25.1663L9.88543 23.4292C8.71603 23.0611 8.70763 22.2352 10.148 21.6414L31.2489 13.2787C32.2126 12.829 33.1428 13.5166 32.7749 15.0327L29.1814 32.4375C28.9305 33.6744 28.2034 33.9702 27.196 33.3989L21.7223 29.2418L19.0908 31.8718L19.066 31.8965C18.7717 32.191 18.5283 32.4346 17.9955 32.4346L18.3683 26.6946Z" fill="#3FC2BB"/>
</svg>
