<svg width="36" height="36" viewBox="0 0 36 36" fill="none" xmlns="http://www.w3.org/2000/svg">
<g clip-path="url(#clip0)">
<path fill-rule="evenodd" clip-rule="evenodd" d="M35.7541 18.179C35.7541 27.9797 27.809 35.9248 18.0083 35.9248C8.20751 35.9248 0.262421 27.9797 0.262421 18.179C0.262421 8.3782 8.20751 0.433105 18.0083 0.433105C27.809 0.433105 35.7541 8.3782 35.7541 18.179ZM18.3809 15.0456C18.3809 14.3128 18.189 13.6846 17.8062 13.1587C17.1682 12.3023 16.0867 11.8635 14.558 11.8412H8.50157V24.205H14.149C14.7857 24.205 15.3748 24.1509 15.9197 24.0392C16.4647 23.9262 16.9357 23.7204 17.3352 23.418C17.6905 23.1545 17.9862 22.8298 18.2223 22.4451C18.5956 21.864 18.7816 21.2064 18.7816 20.4735C18.7816 19.763 18.6182 19.1583 18.2939 18.6619C17.966 18.1643 17.4842 17.8008 16.8451 17.5702C17.266 17.3584 17.5844 17.1231 17.8014 16.8667C18.189 16.4079 18.3809 15.7997 18.3809 15.0456ZM10.9997 16.7161V13.9881H13.728C14.3278 13.9881 14.8215 14.0528 15.2102 14.181C15.6586 14.3669 15.8828 14.7468 15.8828 15.3244C15.8828 15.8421 15.7123 16.2044 15.3736 16.4091C15.0326 16.6138 14.5902 16.7161 14.0476 16.7161H10.9997ZM10.9997 18.7619V22.0593H14.0428C14.5866 22.0593 15.0111 21.9864 15.3128 21.8417C15.8625 21.5711 16.1368 21.0582 16.1368 20.2982C16.1368 19.6536 15.872 19.2124 15.339 18.9713C15.0409 18.8372 14.6224 18.7666 14.0858 18.7619H10.9997ZM21.461 13.9563H26.8318V12.4176H21.461V13.9563ZM27.9586 16.6008C27.5389 15.9844 27.0059 15.5327 26.3584 15.248C25.7121 14.9621 24.9859 14.8186 24.1786 14.8186C22.8204 14.8186 21.7174 15.2433 20.8648 16.0867C20.0146 16.9326 19.5889 18.1478 19.5889 19.7324C19.5889 21.4217 20.0587 22.6428 21.0043 23.3921C21.9451 24.1427 23.0338 24.5168 24.268 24.5168C25.7621 24.5168 26.9248 24.0721 27.7547 23.1839C28.2865 22.624 28.587 22.0722 28.6526 21.5311H26.1783C26.0352 21.7993 25.8683 22.0087 25.6787 22.1605C25.3341 22.4393 24.8845 22.5792 24.3348 22.5792C23.8125 22.5792 23.3677 22.464 22.9981 22.2346C22.3875 21.8664 22.068 21.2229 22.0274 20.3065H28.7802C28.7909 19.5171 28.7647 18.9101 28.6991 18.4913C28.587 17.7749 28.3414 17.1443 27.9586 16.6008ZM22.087 18.7289C22.1753 18.1337 22.3911 17.6619 22.7333 17.3137C23.0756 16.9655 23.5597 16.7914 24.1798 16.7914C24.7521 16.7914 25.2303 16.9549 25.619 17.2831C26.003 17.6137 26.22 18.0937 26.2642 18.7289H22.087Z" fill="white"/>
</g>
<defs>
<clipPath id="clip0">
<rect width="35.4917" height="35.4917" fill="white" transform="translate(0.262421 0.433105)"/>
</clipPath>
</defs>
</svg>
